<svg version="1.1" id="Layer_1" xmlns="http://www.w3.org/2000/svg" xmlns:xlink="http://www.w3.org/1999/xlink" x="0px" y="0px"
	 width="100%" viewBox="0 0 727 681" enable-background="new 0 0 727 681" xml:space="preserve">
<path fill="#00A2E8" opacity="1.000000" stroke="none" 
	d="
M4.652615,1.361084 
	C244.354233,1.000000 483.708466,1.000000 723.531372,1.000000 
	C725.342957,2.144181 726.056091,3.537093 725.997559,5.363150 
	C725.944275,7.025633 726.002380,8.694726 726.002319,10.360729 
	C725.992188,230.165283 726.005066,449.969849 725.999084,669.774414 
	C725.999023,671.107544 726.027161,672.441406 725.988586,673.773743 
	C725.843872,678.775513 724.755188,679.854858 719.718384,679.990417 
	C718.386047,680.026367 717.052368,679.999146 715.719299,679.999146 
	C481.583282,680.000732 247.447250,680.000366 13.311221,679.998779 
	C11.644891,679.998779 9.978483,679.985962 8.312253,679.984924 
	C4.844970,679.982788 3.056656,678.300903 3.018933,674.804321 
	C3.004550,673.471191 2.999504,672.138123 2.999516,670.804993 
	C3.001453,450.167267 2.997115,229.529541 3.032140,8.891826 
	C3.032525,6.470291 2.254951,3.817943 4.652615,1.361084 
z"/>
<path fill="#00A2E8" opacity="1.000000" stroke="none" 
	d="
M4.625000,1.000000 
	C5.000000,223.299301 4.999987,445.598602 5.000243,667.897888 
	C5.000245,669.564270 5.125131,671.241211 4.981749,672.895020 
	C4.634632,676.898621 6.569698,678.338623 10.337335,678.014099 
	C11.660513,677.900085 13.002000,677.999817 14.335126,677.999817 
	C247.799362,678.000000 481.263611,678.000061 714.727844,677.999207 
	C716.394226,677.999207 718.062256,677.935791 719.726562,677.991821 
	C722.628235,678.089417 724.083435,676.810974 723.989990,673.833313 
	C723.932556,672.002319 723.999023,670.167725 723.999084,668.334717 
	C724.000061,446.202240 724.000000,224.069778 724.000000,1.468657 
	C724.750000,1.000000 725.500000,1.000000 726.625000,1.000000 
	C727.251221,1.191703 727.483459,1.404132 727.848389,1.818643 
	C728.000000,228.020889 728.000000,454.041779 728.000000,680.531372 
	C727.808228,681.251343 727.595764,681.483643 727.181274,681.848511 
	C485.645782,682.000000 244.291550,682.000000 2.468657,682.000000 
	C1.748724,681.808228 1.516415,681.595764 1.151537,681.181274 
	C1.000000,454.979095 1.000000,228.958206 1.000000,2.468657 
	C1.191682,1.748717 1.404119,1.516413 1.818655,1.151544 
	C2.750000,1.000000 3.500000,1.000000 4.625000,1.000000 
z"/>
<path fill="#00A2E8" opacity="1.000000" stroke="none" 
	d="
M1.000000,681.500000 
	C1.253289,681.189392 1.486339,681.401123 1.849575,681.817566 
	C1.666667,682.000000 1.333333,682.000000 1.000000,681.500000 
z"/>
<path fill="#00A2E8" opacity="1.000000" stroke="none" 
	d="
M727.500000,682.000000 
	C727.189392,681.746704 727.401123,681.513672 727.817627,681.150452 
	C728.000000,681.333313 728.000000,681.666687 727.500000,682.000000 
z"/>
<path fill="#00A2E8" opacity="1.000000" stroke="none" 
	d="
M728.000000,1.500000 
	C727.746643,1.810662 727.513611,1.598933 727.150452,1.182405 
	C727.333313,1.000000 727.666687,1.000000 728.000000,1.500000 
z"/>
<path fill="#00A2E8" opacity="1.000000" stroke="none" 
	d="
M1.500000,1.000000 
	C1.810632,1.253359 1.598913,1.486412 1.182420,1.849579 
	C1.000000,1.666667 1.000000,1.333333 1.500000,1.000000 
z"/>
<path fill="#FFFFFF" opacity="1.000000" stroke="none" 
	d="
M399.919098,198.757202 
	C400.079163,200.694458 400.953796,202.039001 402.015320,203.683395 
	C405.641693,209.875320 405.809875,216.064316 403.769043,222.834274 
	C403.339630,224.270569 403.035858,225.315033 402.386993,226.659164 
	C401.775177,227.767197 401.383728,228.534637 400.938232,229.630371 
	C401.026031,231.625717 400.377594,233.063751 399.373413,234.729340 
	C395.464569,240.162704 392.643738,245.959396 388.029724,250.466003 
	C377.902191,260.357758 365.501617,267.261230 354.493011,275.969421 
	C334.716736,291.613098 311.894196,302.319061 290.936829,316.025238 
	C290.117859,316.560944 289.396362,317.245728 288.313019,318.013855 
	C287.837921,318.312103 287.679291,318.457550 287.344727,318.873779 
	C287.168854,319.144531 287.143982,319.580017 287.321716,319.706451 
	C295.080627,326.226837 304.756042,327.938843 313.652588,331.280212 
	C331.066254,337.820404 348.301147,344.743225 364.958740,353.028229 
	C369.692871,355.382843 374.271973,358.115936 377.764648,362.791443 
	C378.745789,364.016205 379.534149,364.918091 380.604401,365.931519 
	C382.642517,366.758209 383.487762,368.297516 384.242340,370.161560 
	C384.159668,370.479065 384.238495,370.746307 384.370697,370.790253 
	C390.673492,376.670929 392.454102,387.566498 388.414886,396.645325 
	C380.390594,412.679993 366.340393,421.054993 351.260834,427.796234 
	C336.470123,434.408386 321.255157,440.055054 305.529907,444.164398 
	C300.048737,445.596710 294.507233,446.903076 289.057861,448.306152 
	C281.586853,450.229736 274.115509,452.283020 266.633728,454.255249 
	C264.495300,454.818939 263.723297,457.196106 262.941040,459.590698 
	C262.942627,460.533569 262.843628,461.070587 262.332794,461.774048 
	C257.720734,468.442688 251.829117,471.114563 244.060959,469.004639 
	C241.499268,468.308868 239.221344,467.368530 238.434723,464.144348 
	C236.136536,462.945282 236.170868,460.451172 234.269714,459.018158 
	C230.555969,458.938782 227.353958,460.386810 223.846085,460.056244 
	C218.861069,459.586426 213.296875,455.312805 211.424408,450.128510 
	C210.103470,449.183807 209.512817,448.143921 209.216660,446.562744 
	C210.622711,443.945709 209.821686,440.775146 212.518707,438.714722 
	C213.143158,438.179932 213.503250,437.882843 214.076477,437.314850 
	C215.259079,436.114197 216.357407,435.350403 217.722290,434.392822 
	C218.330338,433.922821 218.654495,433.628265 219.180817,433.069153 
	C220.356171,431.897949 221.614502,431.394348 222.882294,430.330566 
	C223.523117,429.868866 223.853943,429.560486 224.405457,428.976105 
	C225.441406,428.190216 226.336411,427.820862 227.367050,426.967590 
	C228.005905,426.348633 228.363495,425.975800 229.041138,425.351013 
	C233.118713,422.723755 234.172897,419.336548 234.089371,414.941925 
	C233.853348,402.525848 233.962326,390.101776 234.071808,377.272217 
	C234.330200,376.092072 234.509064,375.312073 234.710678,374.144989 
	C235.061996,372.301392 234.881195,370.790039 235.344910,369.000488 
	C235.709854,368.012878 236.033859,367.395172 236.381165,366.428528 
	C236.528580,365.667450 236.628189,365.238861 236.856018,364.507446 
	C237.091721,363.564941 237.318741,362.952087 237.350677,361.974426 
	C237.111938,360.772919 236.534561,360.066864 236.128967,358.908447 
	C234.456161,353.411804 236.789703,347.602234 233.218140,342.449890 
	C227.927673,340.573486 222.391266,339.623383 220.425720,333.130493 
	C215.851715,327.185852 216.070435,322.360413 220.829681,317.404968 
	C224.331329,313.759003 228.669052,311.277771 232.953354,308.722382 
	C236.499329,306.607361 238.688629,304.119507 239.280365,299.429382 
	C240.542404,289.426483 241.722031,279.378510 243.739456,269.469147 
	C244.302505,266.703552 244.013977,263.876709 243.665787,261.042236 
	C242.593231,252.310883 243.485580,243.860489 248.127487,235.717407 
	C249.500015,229.741943 253.541794,225.989502 257.224518,222.012390 
	C258.896332,220.206924 260.728027,218.550186 262.456757,216.698502 
	C261.191986,215.807892 259.683350,216.343307 258.309875,215.318954 
	C253.992630,215.100357 250.847824,217.730499 247.078781,218.642654 
	C238.755142,220.657059 230.459061,222.117081 221.873581,222.062393 
	C219.093033,222.044662 217.923965,220.948944 217.445129,218.161163 
	C213.882996,212.729141 214.373962,205.880020 218.536499,200.842148 
	C220.555115,198.399048 222.542969,196.014587 223.954727,193.113632 
	C225.940231,189.033646 229.997116,187.375671 233.932190,186.127441 
	C247.571640,181.800903 261.356812,177.946671 275.024078,173.694824 
	C283.767548,170.974731 293.340302,170.687912 302.579071,170.164642 
	C312.184875,169.620590 321.848511,169.981003 331.867981,168.994247 
	C332.816132,169.108429 333.348419,169.211334 334.267334,169.385330 
	C335.916077,169.654663 337.154694,170.015869 338.816528,170.078796 
	C339.676849,170.261719 340.169312,170.359772 341.034363,170.510117 
	C343.365112,171.197739 345.391724,170.915527 347.762573,171.085754 
	C348.631866,171.263824 349.130249,171.360397 350.007599,171.509155 
	C353.404510,172.337234 356.476593,171.898727 359.901306,171.976807 
	C360.760376,172.077362 361.244141,172.171173 362.082336,172.328308 
	C362.672394,172.422501 362.907562,172.455582 363.493408,172.532928 
	C364.538940,172.700592 365.166656,173.006393 366.124969,173.401566 
	C366.664856,173.577484 366.879639,173.649048 367.380188,173.901672 
	C368.703705,175.271423 370.576599,175.343384 371.268372,177.173187 
	C371.163879,177.491455 371.238739,177.748413 371.366333,177.788803 
	C374.032043,178.396790 376.527924,178.965225 379.184143,179.100082 
	C382.969452,179.292252 386.619354,180.376801 389.110474,184.108734 
	C389.162872,184.488525 389.241211,184.750168 389.371216,184.791931 
	C391.502197,184.714981 392.702454,185.897308 393.793030,187.730865 
	C394.751953,191.291580 397.438110,193.446625 399.012085,196.679138 
	C399.499329,197.454117 399.906921,197.868561 399.919098,198.757202 
z"/>
<path fill="#FFFFFF" opacity="1.000000" stroke="none" 
	d="
M636.237854,275.203766 
	C624.707031,262.059570 612.590393,250.191254 596.999207,242.471985 
	C591.165405,239.583664 585.439941,236.474670 579.990723,232.322739 
	C579.506592,231.645401 579.103760,231.536270 578.401367,231.886536 
	C578.029602,232.336365 577.986511,232.558594 578.122803,232.950165 
	C577.366455,242.376083 574.136658,251.126099 572.220032,260.168243 
	C567.475159,282.553741 561.871948,304.748810 558.336975,327.399658 
	C556.890869,336.665863 556.043640,346.058655 554.353027,355.185944 
	C551.975647,368.021545 549.339966,380.873230 546.467468,393.644043 
	C545.449036,398.171783 544.744751,402.768280 543.388184,407.636841 
	C539.129944,413.289703 537.013916,419.699066 533.070496,425.082031 
	C530.640930,428.398438 528.138550,431.578308 525.124878,434.349945 
	C522.094177,437.137238 517.387939,436.629272 514.454224,433.126251 
	C509.921661,428.142944 508.031006,422.768005 510.234436,416.466827 
	C511.982056,411.469086 509.921082,406.418427 510.657562,401.255310 
	C511.485077,395.454132 512.527161,389.483948 512.093506,383.078339 
	C512.392822,381.851013 512.542542,381.025879 512.734802,379.790466 
	C513.191589,376.683350 512.891357,373.962463 513.109009,370.858093 
	C513.419189,369.693329 513.566956,368.905365 513.749268,367.717712 
	C514.246643,364.954926 513.718567,362.527496 514.394531,359.795044 
	C514.873291,358.697388 515.218689,357.975952 515.353760,356.777039 
	C514.945679,354.008026 514.823120,351.632141 515.367371,348.878296 
	C515.823303,347.788818 516.174438,347.082367 516.355103,345.916077 
	C516.062561,343.747375 515.904297,341.958038 516.130127,339.778503 
	C516.439697,338.689026 516.589905,337.952820 516.770386,336.844910 
	C517.092896,335.028381 516.852234,333.528320 517.395996,331.756592 
	C517.841797,330.765594 518.167297,330.118652 518.373291,329.056030 
	C518.393921,327.764191 518.038635,326.828094 518.524170,325.562927 
	C518.937988,324.602142 519.246643,323.976379 519.390320,322.937500 
	C519.393066,321.678589 518.987000,320.798523 519.263428,319.540833 
	C519.526306,318.566193 519.704102,317.919769 519.897705,316.937714 
	C520.002136,315.949463 520.106323,315.300934 520.559631,314.407898 
	C520.971191,313.521362 521.264282,312.939362 521.401367,311.965576 
	C521.399963,310.982910 521.200256,310.347107 521.218628,309.358459 
	C521.354553,308.127228 521.361206,307.229370 521.110229,305.989655 
	C520.647217,303.045807 519.485413,300.475189 521.146118,297.820435 
	C521.520020,297.819641 521.886963,297.521881 521.859985,297.287170 
	C520.396912,294.756866 520.467285,292.303192 521.142578,289.819702 
	C523.728699,280.307953 523.785156,270.463165 525.017456,260.773010 
	C525.983948,253.172668 528.085571,245.804520 530.006897,238.417038 
	C530.810669,235.326691 533.193176,232.994888 535.448181,230.755035 
	C538.052124,228.168533 540.544800,225.493408 542.694092,222.506287 
	C543.592163,221.258041 544.572327,220.082596 543.245239,218.185379 
	C532.796448,215.552170 524.121887,209.811111 514.922668,205.151978 
	C512.508057,203.929031 512.283630,201.743988 510.437927,200.109985 
	C507.505310,197.229172 506.453827,194.068939 507.553040,190.365387 
	C508.453613,187.330963 507.698547,184.451614 506.835815,181.578018 
	C504.594910,174.113632 506.227478,167.251953 517.916809,168.904160 
	C524.523743,169.838028 531.007751,167.036377 537.709106,167.936798 
	C542.185425,168.538223 546.527222,169.198273 550.465576,171.612991 
	C552.429016,172.816818 554.443176,173.918777 556.921204,174.022278 
	C569.539795,174.549377 581.422119,179.116440 592.591003,183.825714 
	C611.033813,191.602020 628.068359,202.529602 644.347046,214.376892 
	C645.690735,215.354813 647.117737,216.230118 648.088257,218.094238 
	C648.163452,218.490143 648.241760,218.750900 648.371460,218.792267 
	C651.078674,218.862778 652.448120,220.554825 653.780762,222.827637 
	C658.397827,227.669144 662.838074,232.223846 667.582275,236.910828 
	C669.642700,237.758224 670.487793,239.297882 671.242554,241.161774 
	C671.159790,241.479248 671.238586,241.746429 671.370728,241.790329 
	C675.153931,243.788239 676.381531,247.667953 678.051941,250.918945 
	C685.353760,265.129578 689.849609,280.361694 687.697510,296.290466 
	C686.180908,307.515656 683.332092,318.762939 678.408997,329.656830 
	C677.109497,332.081573 676.052368,334.163055 674.939941,336.601501 
	C674.942627,337.533539 674.843567,338.070587 674.332764,338.774048 
	C667.390503,352.206085 659.971069,365.009033 650.254822,376.320892 
	C645.332642,382.051422 640.236450,387.632507 635.085815,393.586060 
	C634.348694,395.370239 634.778259,397.327423 632.891357,398.104065 
	C640.005127,395.932007 647.204773,394.055511 654.467407,392.617737 
	C663.795044,390.771179 672.035339,386.670441 680.017029,381.804901 
	C681.947021,380.628418 683.764832,378.687897 686.200195,381.140137 
	C686.164307,381.492554 686.243652,381.752747 686.373413,381.793488 
	C690.789185,384.972229 691.071716,390.273254 693.194336,394.555969 
	C694.512207,397.215027 696.568542,399.944763 695.374207,403.670441 
	C686.069702,414.173004 673.723267,418.180847 661.246521,422.033966 
	C655.488647,423.812164 649.533936,422.910492 643.680847,423.761597 
	C637.405579,424.674072 630.842468,424.772491 624.765015,426.316284 
	C620.675232,427.355164 617.248474,431.174713 613.638489,433.900482 
	C602.817322,442.071167 591.303955,448.913635 578.726257,454.163574 
	C573.411621,456.381897 568.363525,459.557404 562.696777,460.565033 
	C553.860352,462.136169 544.904236,463.219208 535.952454,463.898834 
	C528.622803,464.455261 525.852173,458.435242 522.433228,453.105164 
	C519.974365,450.863037 520.702454,448.759949 522.135925,446.693298 
	C527.081482,439.563110 532.599426,432.902405 539.162964,427.215210 
	C543.603638,423.367554 549.435059,422.443665 554.874756,421.252716 
	C567.397217,418.511047 577.258728,410.996246 586.602173,403.215576 
	C597.407166,394.217865 607.812988,384.599121 616.204041,373.045074 
	C621.896790,365.206512 626.188538,356.576996 631.253784,348.391479 
	C632.653076,346.130157 633.646851,343.499664 635.650574,341.773926 
	C643.081665,335.373993 645.173340,326.571625 645.762207,317.614288 
	C646.473022,306.802063 647.737122,295.717163 642.004272,285.517029 
	C640.136597,282.193817 637.827881,279.108978 636.237854,275.203766 
z"/>
<path fill="#FFFFFF" opacity="1.000000" stroke="none" 
	d="
M157.411026,455.652588 
	C155.880142,458.422424 154.462143,460.785461 153.332642,463.279175 
	C150.375977,469.807129 145.734863,473.058746 138.280289,472.099731 
	C135.750168,471.774231 133.869904,471.302185 132.913254,468.382996 
	C132.032242,466.956757 130.742599,466.119751 130.672531,464.727448 
	C130.319550,457.715332 128.021027,450.727600 130.007660,443.686371 
	C131.602676,438.033081 132.173538,432.338104 132.041626,426.476898 
	C131.793732,415.462738 134.561783,404.797821 136.436600,394.065674 
	C140.168198,372.704529 143.412918,351.256348 147.673920,329.989655 
	C148.076141,327.982239 147.599976,326.416931 146.247498,324.521851 
	C145.036880,323.997070 144.183594,321.984161 143.145111,323.678925 
	C138.220444,331.715759 130.580200,330.227081 123.582626,328.633392 
	C114.054962,326.463501 105.749611,327.430115 98.278198,334.110809 
	C94.348549,337.624573 88.820465,337.107941 84.118118,338.778137 
	C77.396683,341.165436 71.742462,345.000183 66.096649,349.574402 
	C64.373413,351.498962 63.972897,353.589142 63.697021,356.051392 
	C63.880280,356.883209 63.923019,357.367615 63.858452,358.224670 
	C64.169632,368.058838 63.932392,377.529480 64.003212,386.997955 
	C64.014404,388.493317 63.905804,389.994812 64.172615,391.480652 
	C64.866570,395.345459 65.804504,395.714905 68.916443,393.352112 
	C72.973122,390.272034 76.084351,390.099915 80.110184,393.110474 
	C80.161728,393.485229 80.240433,393.748993 80.371330,393.791473 
	C83.132629,394.950073 83.192307,397.067871 82.814522,399.760406 
	C77.067131,413.175446 69.058968,424.951172 60.790886,436.568420 
	C56.556637,442.517853 43.094204,446.665619 36.594780,443.797974 
	C33.490410,442.428284 32.879414,439.058319 31.366728,436.066345 
	C27.208405,431.630280 27.450527,426.120422 26.598795,420.988770 
	C24.936152,410.971405 25.378454,400.821106 24.839502,390.733490 
	C24.278362,380.230621 24.804403,369.566772 21.641130,359.263702 
	C20.356953,355.080994 18.312124,351.294739 16.573805,347.354218 
	C12.674743,338.515656 12.923538,330.360260 19.452330,322.717163 
	C25.634752,315.479584 25.854361,306.078735 27.849945,297.422089 
	C30.162828,287.388977 30.675152,277.105560 31.164326,266.790375 
	C31.775959,253.892792 32.689671,240.917786 36.546062,228.432495 
	C37.750000,224.534668 37.818047,220.670975 37.367001,216.644211 
	C36.373238,207.772308 38.005474,199.010559 40.277428,190.587585 
	C41.688831,185.354996 46.354168,181.151871 50.902599,178.449814 
	C56.822796,174.932831 63.541843,172.564148 70.847702,172.953384 
	C75.300133,173.190598 78.906006,174.669403 81.735146,178.709885 
	C81.939491,179.094604 81.974983,179.025757 81.940514,179.043427 
	C87.576324,183.759476 89.136353,188.947342 86.749863,195.798264 
	C81.638046,210.472778 79.515495,225.750824 77.504486,241.052246 
	C75.179131,258.745514 72.724228,276.415314 68.404419,293.762329 
	C68.121658,294.897797 67.956490,296.047150 67.725319,297.187592 
	C67.039879,300.569031 68.314316,302.334503 71.890923,302.163574 
	C74.881897,302.020660 77.892235,302.000061 80.711090,300.772217 
	C86.326462,298.326172 92.209152,297.478943 98.275154,298.017212 
	C105.123749,298.624878 111.834488,296.920685 118.652794,296.964325 
	C124.807076,297.003693 130.850357,297.336151 136.940704,298.645386 
	C142.960510,299.939484 148.638046,296.872955 154.412109,295.494385 
	C155.986313,295.118530 156.131805,293.182129 156.720718,291.826691 
	C159.480225,285.475464 160.228088,278.656525 160.896423,271.908752 
	C162.221649,258.528992 164.905655,245.355133 166.504456,232.032791 
	C167.105133,227.027557 168.941193,221.951859 167.147537,216.376678 
	C167.469803,213.922623 164.731079,213.322510 164.905029,211.081940 
	C162.351807,209.903900 163.238342,207.948349 163.937637,206.631989 
	C171.912003,191.621368 181.307281,177.841492 197.629333,170.720444 
	C200.628311,169.412018 204.157593,168.796341 206.710495,172.811600 
	C207.423309,173.692719 207.888748,174.270584 208.620209,174.945770 
	C210.622192,175.771347 211.144943,177.197662 211.511856,178.950760 
	C212.944489,185.795853 212.884384,192.455368 211.992538,199.517288 
	C210.771317,209.187195 208.617325,218.688126 207.553726,228.361023 
	C207.279510,230.855011 207.589432,233.369797 208.099854,235.720810 
	C210.136383,245.100922 206.233917,253.583923 204.550934,262.416199 
	C202.000473,275.800812 198.497742,288.955750 195.404327,302.210205 
	C193.375275,310.904053 192.139908,319.813995 190.984421,328.674377 
	C189.880661,337.138153 187.186325,345.136627 184.777542,353.191589 
	C176.341492,381.401703 170.169739,410.175995 162.916504,438.679504 
	C161.485413,444.303345 160.126404,449.991638 157.411026,455.652588 
z"/>
<path fill="#00A2E8" opacity="1.000000" stroke="none" 
	d="
M81.923096,178.718567 
	C71.288269,170.715561 60.470730,175.583267 51.355907,180.828064 
	C43.443382,185.381042 39.825504,194.465256 39.957855,204.332748 
	C40.174366,220.474548 37.273609,236.237122 34.251011,252.038574 
	C32.807610,259.584351 33.559700,267.526855 32.956547,275.261536 
	C31.764969,290.542023 29.827213,305.705811 23.964214,320.057648 
	C23.476667,321.251099 22.879162,322.507782 22.002956,323.417389 
	C14.309007,331.404388 14.225715,340.378296 18.998295,349.605530 
	C24.170698,359.605713 25.607647,370.118011 26.259323,381.263397 
	C27.152224,396.534302 26.173941,411.944031 29.030594,427.087769 
	C29.538597,429.780792 30.339016,432.418671 31.025463,435.486023 
	C27.525673,436.397705 27.658623,433.258698 27.082657,431.432465 
	C24.158134,422.159637 23.243490,412.503418 23.101700,402.873230 
	C22.910597,389.893860 22.590914,376.941345 21.059496,364.048370 
	C20.383663,358.358582 18.256756,353.118866 15.562379,348.072052 
	C10.342291,338.294312 10.679173,329.110687 18.131765,320.327820 
	C24.049204,313.354126 23.739170,304.125519 25.870264,295.830780 
	C29.244606,282.696960 28.849499,269.100220 29.887640,255.694351 
	C30.338572,249.871368 30.350113,243.879059 32.113396,238.422562 
	C36.750896,224.071808 34.639404,209.119202 36.751808,194.544434 
	C38.014145,185.834793 43.538033,180.616455 49.469124,176.455963 
	C55.756241,172.045715 63.752834,170.013489 71.877602,171.069946 
	C76.451721,171.664734 80.807854,172.829758 81.923096,178.718567 
z"/>
<path fill="#00A2E8" opacity="1.000000" stroke="none" 
	d="
M636.061401,275.263123 
	C643.819275,284.745789 649.363159,295.251221 648.143494,308.523407 
	C647.528870,315.211823 647.800171,321.949097 646.085815,328.562134 
	C645.214844,331.921631 644.419678,335.257263 642.008240,337.797760 
	C632.660034,347.646179 628.031677,360.540680 620.201904,371.344360 
	C613.147278,381.078522 604.846558,389.620575 596.062317,397.919006 
	C587.719543,405.800293 578.330627,411.882874 569.142273,418.445160 
	C563.752258,422.294647 557.350525,423.380066 551.358276,424.544739 
	C542.563660,426.254211 536.978271,431.753387 531.898132,437.893829 
	C528.242188,442.312836 523.654480,446.318909 522.067322,452.587799 
	C517.918213,450.997559 517.326172,448.435913 520.398193,444.792572 
	C523.612061,440.980988 526.539368,436.926788 529.572021,432.963470 
	C535.547607,425.154114 543.635071,420.947784 553.136047,419.215149 
	C565.451050,416.969299 575.076355,409.386627 584.176331,401.878387 
	C595.667786,392.397095 606.803467,382.243073 615.567261,369.910797 
	C620.982849,362.289978 625.112915,353.910095 630.009888,345.985809 
	C631.321289,343.863678 632.239746,341.263489 634.053955,339.727875 
	C642.159729,332.866699 642.996033,323.311859 643.923279,313.885712 
	C645.147217,301.443817 644.573181,289.238617 636.869324,278.496735 
	C636.329163,277.743500 636.330750,276.601746 636.061401,275.263123 
z"/>
<path fill="#00A2E8" opacity="1.000000" stroke="none" 
	d="
M166.892670,216.281708 
	C169.753937,217.250839 170.356705,219.504608 169.994629,222.177704 
	C168.635086,232.214874 167.614182,242.315018 165.785370,252.266403 
	C164.158600,261.118317 163.167191,270.046600 162.178787,278.948761 
	C161.517319,284.906525 159.362610,290.294495 157.947418,295.954346 
	C157.684738,297.004883 157.025146,297.748291 155.963333,297.931946 
	C147.395248,299.414124 139.199661,302.216339 130.002426,299.429688 
	C124.449661,297.747192 117.852692,298.355835 111.749466,299.598022 
	C106.986481,300.567444 102.135353,300.015656 97.337746,299.929291 
	C92.829697,299.848145 88.440590,300.158386 84.352509,302.056335 
	C80.099678,304.030762 75.465912,304.000031 71.023605,304.897827 
	C66.442535,305.823639 65.134552,304.248169 66.066345,299.437988 
	C67.272011,293.213959 68.616028,287.011475 70.101295,280.848083 
	C72.554161,270.669556 73.473999,260.258179 74.971687,249.937149 
	C77.333832,233.658859 79.082375,217.270782 84.163605,201.513565 
	C86.599739,193.958954 87.870148,186.531311 82.056335,179.387695 
	C88.159279,181.244888 91.192474,189.470734 88.450905,195.213989 
	C84.855637,202.745682 82.832031,210.836670 81.723389,219.118484 
	C80.657188,227.083328 79.798149,235.077087 78.649872,243.029510 
	C77.127098,253.575531 75.593956,264.126404 73.713463,274.612122 
	C72.517776,281.279266 70.612854,287.816437 69.159882,294.441223 
	C68.161118,298.995056 69.277756,300.193268 73.939323,299.949249 
	C74.765915,299.906006 75.635605,299.872375 76.401283,299.598877 
	C92.959938,293.683746 110.257645,295.460114 127.254990,295.306305 
	C134.965347,295.236511 142.588638,297.306885 150.280640,294.342804 
	C152.776489,293.381042 154.030914,292.199615 154.936722,289.841278 
	C158.516190,280.521484 158.510468,270.602997 159.991608,260.936340 
	C162.254776,246.165665 164.449326,231.384476 166.892670,216.281708 
z"/>
<path fill="#00A2E8" opacity="1.000000" stroke="none" 
	d="
M333.245422,170.669342 
	C323.444336,172.017960 313.778442,171.377823 304.252991,172.195541 
	C291.161804,173.319321 277.982361,174.258179 265.390320,179.078003 
	C256.635651,182.428970 247.282089,184.180710 238.351501,187.119202 
	C232.640244,188.998428 226.701294,190.366592 224.306824,197.747879 
	C223.088943,201.502136 218.204453,203.733215 217.505707,208.719589 
	C217.110443,211.540222 217.314240,214.298767 217.066467,217.512329 
	C214.200363,217.428818 213.432693,215.232407 213.028244,212.365997 
	C209.619507,209.068359 211.783859,205.745483 212.666153,202.268311 
	C216.712234,200.392776 219.134521,197.170914 220.645355,193.875626 
	C223.382736,187.905045 228.222031,185.286789 233.924118,183.570007 
	C246.643738,179.740372 259.409241,176.072418 272.096130,172.123703 
	C280.511871,169.504364 289.735016,168.705475 298.622101,168.551025 
	C312.822662,168.304230 327.021088,165.567429 341.283081,168.455170 
	C346.769012,169.565948 352.484406,169.584473 358.103668,169.981720 
	C361.936249,170.252670 365.724457,170.503906 368.855957,173.679382 
	C368.692474,174.714325 368.036743,175.046310 367.127747,175.632065 
	C366.638031,175.788559 366.449432,175.743820 366.134155,175.437317 
	C365.661865,174.478271 365.085693,174.304520 364.093994,174.643402 
	C363.632721,174.787537 363.444855,174.741760 363.131165,174.434677 
	C362.713623,173.498474 362.185242,173.346512 361.259155,173.666824 
	C357.479736,173.827637 353.959595,173.821945 350.198792,173.465698 
	C349.634430,172.514023 349.129974,172.347870 348.245422,172.669342 
	C345.801727,172.821472 343.603546,172.809616 341.181763,172.456451 
	C340.634430,171.514023 340.129974,171.347870 339.245422,171.669357 
	C337.777496,171.807251 336.555084,171.781143 335.145386,171.435089 
	C334.634430,170.514023 334.129974,170.347870 333.245422,170.669342 
z"/>
<path fill="#00A2E8" opacity="1.000000" stroke="none" 
	d="
M648.260437,218.128143 
	C639.179871,212.657928 630.498413,206.370087 621.201233,201.008682 
	C606.174683,192.343277 591.363281,183.434982 573.961304,179.841980 
	C567.825134,178.575058 562.070557,176.067429 555.534302,175.679672 
	C550.985474,175.409836 547.161621,171.040405 542.130859,170.543091 
	C537.337463,170.069214 532.656982,169.375870 527.771729,170.541977 
	C524.462952,171.331818 520.816284,171.250427 517.390381,170.892395 
	C510.203949,170.141357 506.865570,172.613998 508.194611,179.549362 
	C509.221497,184.908142 510.814880,189.997925 509.022308,195.430695 
	C508.570404,196.800201 509.589172,197.929886 510.052063,199.556320 
	C506.022552,197.863068 504.414398,194.383118 505.342926,190.057617 
	C506.145050,186.321030 505.707916,182.895752 504.687775,179.288956 
	C502.162781,170.361984 507.183990,164.973907 516.443420,166.635513 
	C522.642395,167.747910 528.628235,165.519150 534.806396,165.901215 
	C540.869080,166.276138 546.719299,166.791641 551.839905,170.472641 
	C552.623718,171.036041 553.689270,171.610519 554.584839,171.553879 
	C564.954651,170.898300 573.593140,177.249466 583.436890,178.598099 
	C592.662964,179.862106 600.010437,185.321457 607.842041,189.542999 
	C621.128540,196.704941 633.992310,204.617310 646.042725,213.778656 
	C647.459351,214.855606 648.685852,215.792130 648.260437,218.128143 
z"/>
<path fill="#00A2E8" opacity="1.000000" stroke="none" 
	d="
M145.995575,324.581085 
	C150.544754,324.457367 150.511002,327.733185 149.901154,330.794983 
	C144.965363,355.575226 141.281738,380.571503 136.823502,405.429810 
	C135.010086,415.541107 133.774200,425.569397 133.988495,435.806183 
	C134.012497,436.952515 133.883728,438.039886 133.448853,439.190887 
	C129.956863,448.433533 131.452179,457.802795 132.887543,467.579285 
	C130.154236,467.401001 128.886642,465.374573 128.603622,462.985229 
	C127.940620,457.387695 126.118225,451.381561 127.423973,446.212494 
	C129.994308,436.037292 129.206070,425.690247 130.829437,415.548065 
	C133.957718,396.003510 137.251968,376.485413 140.516922,356.962921 
	C142.300171,346.300140 144.164261,335.650879 145.995575,324.581085 
z"/>
<path fill="#00A2E8" opacity="1.000000" stroke="none" 
	d="
M212.952820,201.677872 
	C214.119095,205.059799 212.740784,208.119858 213.000488,211.589874 
	C208.897705,214.164719 210.925751,218.426483 209.993637,221.611511 
	C208.725616,225.944427 209.123138,230.614899 209.801758,235.274414 
	C210.511093,240.144577 209.994202,245.113846 208.610077,250.075912 
	C203.735641,267.550690 200.599686,285.446899 196.205780,303.054993 
	C193.795761,312.712921 193.638000,322.911407 191.750977,332.728943 
	C190.503799,339.217590 187.970184,345.456970 186.044586,351.817627 
	C177.497940,380.049133 171.359100,408.897491 164.047989,437.445526 
	C162.456848,443.658539 161.482040,450.171783 157.468628,455.846008 
	C167.082169,422.591156 173.073547,388.155365 183.589920,354.906799 
	C188.419266,339.638336 190.347870,323.814636 193.120285,308.132751 
	C194.868225,298.245636 197.592331,288.520325 200.116394,278.784119 
	C202.801620,268.426361 203.757202,257.641327 207.764099,247.623245 
	C208.514328,245.747513 207.274719,244.404922 206.902527,242.931549 
	C204.433197,233.155807 207.219254,223.695709 208.484604,214.196655 
	C210.191025,201.386475 212.866425,188.662247 209.070099,175.407013 
	C211.025726,175.059692 212.297760,176.176987 212.784180,178.202652 
	C214.477615,185.254822 217.108627,192.300018 212.859772,199.399033 
	C212.576401,199.872528 212.876755,200.695374 212.952820,201.677872 
z"/>
<path fill="#00A2E8" opacity="1.000000" stroke="none" 
	d="
M249.774445,234.773254 
	C247.612427,241.210220 246.169754,247.654617 245.020935,254.194901 
	C244.160126,259.095490 246.997894,263.575134 246.096115,268.579498 
	C244.279297,278.661987 242.376038,288.803284 241.731186,298.997711 
	C241.260483,306.439087 237.347198,309.783539 231.350891,312.356262 
	C229.150085,313.300568 227.225189,314.929016 225.250153,316.350616 
	C219.451019,320.524689 218.053253,324.815552 220.065155,332.547974 
	C214.510193,329.845459 213.337311,321.994354 217.770386,316.793304 
	C221.503174,312.413849 226.388412,309.535278 231.329468,306.783203 
	C234.880051,304.805634 236.834946,302.317474 237.293747,297.869202 
	C238.330612,287.816620 240.246887,277.856445 241.723953,267.846649 
	C242.235352,264.380981 241.686478,260.921051 241.485336,257.442200 
	C241.036224,249.674423 241.039307,241.839020 246.685226,235.136536 
	C247.720062,234.390854 248.529816,234.224182 249.774445,234.773254 
z"/>
<path fill="#00A2E8" opacity="1.000000" stroke="none" 
	d="
M542.866760,218.179291 
	C545.496277,217.888779 547.947205,217.888779 551.528076,217.888779 
	C543.943359,222.560440 540.328918,229.484726 535.002563,234.843109 
	C529.383484,240.495895 529.865112,248.980225 528.131775,256.289642 
	C525.345398,268.039581 526.186340,280.376160 523.003906,292.118744 
	C522.624207,293.519714 522.316711,294.940277 521.904297,296.702087 
	C518.506165,294.974243 517.939148,292.186768 519.056152,288.489624 
	C521.617004,280.013672 522.116516,271.155487 522.698914,262.421661 
	C523.851196,245.140549 529.698608,230.245483 542.866760,218.179291 
z"/>
<path fill="#00A2E8" opacity="1.000000" stroke="none" 
	d="
M377.937805,362.738647 
	C353.537109,346.853210 325.820679,338.045776 298.657898,327.967621 
	C294.467590,326.412903 289.830475,325.222290 287.683716,320.105774 
	C293.301025,320.716858 298.213654,323.997681 303.681244,325.847809 
	C324.931488,333.038483 345.797028,341.271423 365.772858,351.527649 
	C370.577728,353.994598 376.041443,356.337067 377.937805,362.738647 
z"/>
<path fill="#00A2E8" opacity="1.000000" stroke="none" 
	d="
M543.472412,407.823151 
	C543.543701,400.000000 545.830933,392.318207 547.341309,384.527618 
	C549.943726,371.104095 552.451416,357.711212 554.204590,344.121246 
	C555.967468,330.456299 559.342102,317.000519 561.977722,303.446716 
	C566.525940,280.056976 572.051086,256.889465 577.991455,233.433960 
	C579.260742,235.407288 578.576111,237.664368 578.017761,239.925873 
	C571.567139,266.056366 565.612000,292.299469 560.609802,318.746429 
	C558.751709,328.570343 557.004883,338.449249 555.939026,348.381592 
	C554.126648,365.271027 549.064209,381.498657 546.393494,398.202271 
	C545.881042,401.407440 545.860168,404.838440 543.472412,407.823151 
z"/>
<path fill="#00A2E8" opacity="1.000000" stroke="none" 
	d="
M206.951172,172.719254 
	C201.402802,170.324997 196.935806,173.160172 192.536911,175.998199 
	C179.553894,184.374329 171.181274,196.478836 164.907257,210.569000 
	C160.940277,210.471268 160.381088,207.869080 161.884094,205.194519 
	C170.126694,190.526978 178.952118,176.275589 195.195358,168.986847 
	C200.920166,166.417969 205.452103,167.878494 206.951172,172.719254 
z"/>
<path fill="#00A2E8" opacity="1.000000" stroke="none" 
	d="
M686.259033,381.121490 
	C685.543945,381.403748 684.652832,381.002502 684.342468,381.271454 
	C674.651428,389.669586 662.867432,393.267883 650.708252,395.941406 
	C642.657959,397.711487 634.663635,399.687531 626.405273,401.536316 
	C629.048645,399.080719 631.692078,396.625092 634.644165,394.030212 
	C635.736877,394.044769 636.587891,394.479553 637.295227,394.311066 
	C652.223083,390.755981 667.522888,388.248199 680.186951,378.461456 
	C682.935242,376.337677 685.859741,375.794403 686.259033,381.121490 
z"/>
<path fill="#00A2E8" opacity="1.000000" stroke="none" 
	d="
M80.255524,393.099213 
	C75.045631,392.096497 70.753601,392.677094 68.252541,398.141083 
	C67.799492,399.130798 66.662956,399.807312 65.843185,400.629639 
	C64.241402,402.236450 63.374699,402.634949 62.945045,399.673950 
	C60.956108,385.966980 62.490463,372.201324 62.096111,358.048828 
	C62.809132,357.387939 63.463531,357.347870 64.564941,357.751801 
	C67.021484,366.699249 65.696548,375.527313 65.935104,384.292175 
	C66.038811,388.102417 65.501923,391.051544 71.324570,389.368530 
	C74.083740,388.570984 79.304527,386.496704 80.255524,393.099213 
z"/>
<path fill="#00A2E8" opacity="1.000000" stroke="none" 
	d="
M678.468262,329.846130 
	C680.587830,320.817963 683.887329,311.888123 685.333069,302.420288 
	C686.491577,294.832977 686.179871,287.262329 685.737061,279.729126 
	C685.240295,271.278168 682.157959,263.384338 679.067505,255.532532 
	C677.208862,250.810120 673.966370,246.930298 671.687988,242.110291 
	C673.903931,241.200912 674.765930,243.062164 675.666260,244.576080 
	C684.550659,259.514435 690.004822,275.411346 690.156799,293.052063 
	C690.198547,297.898773 687.283569,301.363647 686.424011,305.731781 
	C684.803284,313.968353 683.216736,322.316315 678.468262,329.846130 
z"/>
<path fill="#00A2E8" opacity="1.000000" stroke="none" 
	d="
M235.938766,375.704071 
	C236.080551,389.135437 235.782135,402.240723 236.122559,415.329376 
	C236.265854,420.838837 234.684891,424.930389 229.909622,428.094421 
	C229.190033,427.213043 228.184448,427.182373 227.262375,426.338623 
	C233.510345,419.231445 231.823502,410.732635 232.029327,402.591400 
	C232.255798,393.632843 231.268463,384.648651 232.792618,375.357147 
	C234.019058,374.380035 234.920822,374.631042 235.938766,375.704071 
z"/>
<path fill="#00A2E8" opacity="1.000000" stroke="none" 
	d="
M513.938721,381.704071 
	C513.948730,390.205322 511.674713,398.562775 512.535217,406.351929 
	C513.490906,415.002960 507.757446,424.030731 514.056885,432.580811 
	C508.971985,429.710876 506.268219,424.471985 507.544037,419.068787 
	C509.336182,411.478851 507.520905,403.928101 508.928345,396.445374 
	C509.840363,391.596619 510.060242,386.617706 510.795105,381.348572 
	C512.019043,380.380035 512.920776,380.631012 513.938721,381.704071 
z"/>
<path fill="#00A2E8" opacity="1.000000" stroke="none" 
	d="
M250.425842,234.873871 
	C249.338638,235.027725 248.559128,235.016235 247.389801,235.002365 
	C246.951477,228.993927 251.102737,225.223053 254.476120,221.060608 
	C255.799332,219.427872 257.730865,218.230637 257.968079,215.514618 
	C259.995422,213.105530 262.928986,213.628098 264.998352,213.852478 
	C267.106476,214.081055 265.970947,216.449692 264.747070,217.759491 
	C261.044922,221.721588 256.815826,225.168472 253.676025,229.694809 
	C252.551224,231.316315 251.490280,232.903137 250.425842,234.873871 
z"/>
<path fill="#00A2E8" opacity="1.000000" stroke="none" 
	d="
M388.464233,396.853699 
	C390.195923,388.069519 389.068054,379.543793 384.694153,371.121948 
	C385.329102,370.651703 386.128143,370.619171 386.793640,371.271179 
	C392.920685,377.273865 393.899353,389.926392 388.464233,396.853699 
z"/>
<path fill="#00A2E8" opacity="1.000000" stroke="none" 
	d="
M389.261353,184.123932 
	C385.091949,182.530365 381.059540,180.385437 376.304779,181.011353 
	C374.087616,181.303207 373.192657,179.568634 371.711182,178.099426 
	C376.448212,176.305420 381.249329,176.773712 385.894897,178.989960 
	C387.891388,179.942429 389.718658,181.070984 389.261353,184.123932 
z"/>
<path fill="#00A2E8" opacity="1.000000" stroke="none" 
	d="
M403.154938,224.161194 
	C403.078400,217.527512 403.358795,211.090851 402.096619,204.362732 
	C407.436432,207.113541 408.634766,217.550186 404.196716,223.696655 
	C403.809204,224.120651 403.618408,224.241318 403.154938,224.161194 
z"/>
<path fill="#00A2E8" opacity="1.000000" stroke="none" 
	d="
M695.464844,403.831543 
	C693.614929,396.338135 689.521851,389.650970 686.693237,382.120056 
	C688.099426,381.371460 689.113098,382.164062 689.691895,383.504578 
	C692.066650,389.003967 694.430176,394.509399 696.683533,400.059052 
	C697.195312,401.319489 697.034851,402.708679 695.464844,403.831543 
z"/>
<path fill="#00A2E8" opacity="1.000000" stroke="none" 
	d="
M233.002563,342.568695 
	C237.469513,344.703796 237.734070,348.879822 237.258896,353.288879 
	C237.065231,355.085938 236.542542,356.869659 237.839478,358.946289 
	C236.094101,360.258087 235.850769,358.902954 235.221680,357.394440 
	C231.053589,352.790039 234.985138,347.460297 233.002563,342.568695 
z"/>
<path fill="#00A2E8" opacity="1.000000" stroke="none" 
	d="
M514.938721,369.704071 
	C515.071838,373.058838 515.022888,376.080811 514.903625,379.551178 
	C513.901611,380.894775 512.844116,380.926544 511.356567,380.226929 
	C511.235504,376.568512 510.448151,373.078461 511.794922,369.349426 
	C513.019043,368.380066 513.920776,368.631012 514.938721,369.704071 
z"/>
<path fill="#00A2E8" opacity="1.000000" stroke="none" 
	d="
M515.963623,358.755066 
	C516.071899,361.728455 516.022949,364.420013 515.903687,367.555603 
	C514.901550,368.894775 513.844055,368.926575 512.356567,368.226929 
	C512.514343,364.796997 510.788788,361.283691 513.667603,358.181091 
	C514.667236,357.909210 515.274841,358.045898 515.963623,358.755066 
z"/>
<path fill="#00A2E8" opacity="1.000000" stroke="none" 
	d="
M516.963623,347.755066 
	C517.071838,350.728455 517.022888,353.420013 516.903687,356.555603 
	C516.197632,357.596741 515.462952,357.728027 514.322205,357.232239 
	C512.994446,353.743469 511.880402,350.483093 514.672485,347.175293 
	C515.667236,346.909210 516.274841,347.045898 516.963623,347.755066 
z"/>
<path fill="#00A2E8" opacity="1.000000" stroke="none" 
	d="
M214.887344,439.213287 
	C213.095169,441.043732 211.558594,443.124573 210.418884,445.880188 
	C209.617905,446.236847 209.210632,446.124207 208.943359,445.354950 
	C208.140594,441.905914 207.583572,438.902100 211.666672,437.092010 
	C212.965500,437.516876 214.029373,437.910797 214.887344,439.213287 
z"/>
<path fill="#00A2E8" opacity="1.000000" stroke="none" 
	d="
M521.154419,297.711548 
	C522.120789,300.270660 521.696228,302.920135 522.895020,305.621582 
	C521.904480,306.895325 520.860413,307.075928 519.347656,306.252563 
	C518.813538,304.222412 518.668762,302.439148 518.429260,300.668762 
	C518.177612,298.808685 518.283752,297.304749 521.154419,297.711548 
z"/>
<path fill="#00A2E8" opacity="1.000000" stroke="none" 
	d="
M517.938721,338.704071 
	C518.071838,341.070587 518.022888,343.104279 517.903687,345.568787 
	C517.197632,346.596741 516.462952,346.728027 515.322205,346.232239 
	C513.960815,343.593781 513.567078,341.153046 514.803040,338.317841 
	C516.019043,337.380066 516.920776,337.631012 517.938721,338.704071 
z"/>
<path fill="#00A2E8" opacity="1.000000" stroke="none" 
	d="
M236.963593,367.755066 
	C237.071899,369.743530 237.022903,371.450226 236.903625,373.578247 
	C235.901581,374.894836 234.844101,374.926575 233.356598,374.226929 
	C233.306732,371.752075 232.170609,369.212097 234.673706,367.171326 
	C235.667221,366.909210 236.274826,367.045959 236.963593,367.755066 
z"/>
<path fill="#00A2E8" opacity="1.000000" stroke="none" 
	d="
M518.963623,330.755066 
	C519.071838,332.743530 519.022888,334.450226 518.903625,336.578247 
	C517.901550,337.894775 516.844055,337.926575 515.356567,337.226929 
	C515.306763,334.752106 514.170410,332.212097 516.673706,330.171356 
	C517.667236,329.909210 518.274841,330.045898 518.963623,330.755066 
z"/>
<path fill="#00A2E8" opacity="1.000000" stroke="none" 
	d="
M219.865219,435.393982 
	C218.885239,436.698944 217.573822,437.879700 215.888046,439.123138 
	C215.173767,438.292145 214.218155,438.151245 213.294418,437.305725 
	C213.501862,434.676453 214.882553,433.309021 217.943695,433.216736 
	C219.038666,433.943634 219.248566,434.625305 219.865219,435.393982 
z"/>
<path fill="#00A2E8" opacity="1.000000" stroke="none" 
	d="
M224.888367,431.211517 
	C223.913498,432.633881 222.574554,433.859467 220.852692,435.161011 
	C220.174561,434.328766 219.224396,434.144623 218.313614,433.285126 
	C218.383224,431.082153 219.437180,429.749298 221.673340,429.081268 
	C222.964737,429.517120 224.029678,429.908661 224.888367,431.211517 
z"/>
<path fill="#00A2E8" opacity="1.000000" stroke="none" 
	d="
M519.963623,324.755066 
	C520.071899,326.096466 520.022949,327.156097 519.903687,328.607666 
	C519.197632,329.596741 518.462952,329.728027 517.322205,329.232239 
	C516.396851,327.357635 515.346191,325.676819 517.703735,324.131836 
	C518.667236,323.909210 519.274841,324.045898 519.963623,324.755066 
z"/>
<path fill="#00A2E8" opacity="1.000000" stroke="none" 
	d="
M520.938721,318.704071 
	C521.071838,320.096497 521.022888,321.156097 520.903687,322.607666 
	C520.197632,323.596741 519.462952,323.728027 518.322205,323.232239 
	C517.369812,321.556946 516.728210,320.114838 517.813721,318.271973 
	C519.019043,317.380066 519.920776,317.631012 520.938721,318.704071 
z"/>
<path fill="#00A2E8" opacity="1.000000" stroke="none" 
	d="
M653.934448,222.722336 
	C652.112305,222.057953 650.155579,221.150406 648.695068,219.077240 
	C651.940125,217.468445 653.505737,219.001984 653.934448,222.722336 
z"/>
<path fill="#00A2E8" opacity="1.000000" stroke="none" 
	d="
M394.054016,187.774292 
	C391.849518,188.172134 391.101166,186.402176 389.693604,185.075455 
	C392.082092,183.940460 394.299988,183.688736 394.054016,187.774292 
z"/>
<path fill="#00A2E8" opacity="1.000000" stroke="none" 
	d="
M234.037689,459.233307 
	C238.425278,457.434357 236.266418,462.144012 238.059387,463.594727 
	C235.594208,463.586029 234.712616,461.715057 234.037689,459.233307 
z"/>
<path fill="#00A2E8" opacity="1.000000" stroke="none" 
	d="
M521.963562,313.755066 
	C522.071960,314.780243 522.023132,315.523651 521.903809,316.633301 
	C520.901550,317.894775 519.844055,317.926575 518.356567,317.226929 
	C518.069153,315.617706 517.930420,314.157990 519.690796,313.145172 
	C520.667236,312.909210 521.274841,313.045898 521.963562,313.755066 
z"/>
<path fill="#00A2E8" opacity="1.000000" stroke="none" 
	d="
M83.097794,399.767181 
	C81.219795,398.588623 82.321625,396.037811 80.693436,394.121094 
	C84.983810,393.948547 83.815292,396.832062 83.097794,399.767181 
z"/>
<path fill="#00A2E8" opacity="1.000000" stroke="none" 
	d="
M228.901535,428.190735 
	C228.281189,429.252472 227.290451,430.141083 225.906708,431.107758 
	C225.173767,430.292145 224.218155,430.151245 223.294418,429.305725 
	C223.269562,427.621765 223.934937,426.573822 225.682922,426.082336 
	C226.883682,426.622375 227.932678,427.037384 228.901535,428.190735 
z"/>
<path fill="#00A2E8" opacity="1.000000" stroke="none" 
	d="
M63.126595,356.210144 
	C63.533779,353.966766 61.750832,350.962006 65.572701,349.945312 
	C66.021751,351.893616 65.211853,353.639526 64.156609,355.679382 
	C63.805752,356.140747 63.611507,356.281494 63.126595,356.210144 
z"/>
<path fill="#00A2E8" opacity="1.000000" stroke="none" 
	d="
M208.730560,445.112976 
	C209.235733,445.244385 209.471466,445.488770 209.907913,445.890442 
	C210.411407,447.122009 210.714188,448.196320 211.065948,449.614319 
	C208.834991,449.163147 206.656494,448.311432 208.730560,445.112976 
z"/>
<path fill="#00A2E8" opacity="1.000000" stroke="none" 
	d="
M522.851074,308.732483 
	C523.069641,309.782532 523.021973,310.525238 522.903809,311.633759 
	C522.197632,312.596741 521.462952,312.728027 520.322205,312.232239 
	C519.681335,310.897400 519.362671,309.794769 519.021973,308.346069 
	C520.343689,306.887085 521.493835,307.406860 522.851074,308.732483 
z"/>
<path fill="#00A2E8" opacity="1.000000" stroke="none" 
	d="
M367.119080,175.905182 
	C367.330566,175.322937 367.834442,174.812561 368.669189,174.151093 
	C370.452545,174.383224 371.603760,175.017120 371.255737,177.156677 
	C369.913086,176.986649 368.662262,176.481857 367.119080,175.905182 
z"/>
<path fill="#00A2E8" opacity="1.000000" stroke="none" 
	d="
M523.377991,308.900696 
	C521.976624,308.738098 520.835938,308.436371 519.347595,308.067322 
	C519.000000,307.555542 519.000000,307.111115 519.000000,306.333313 
	C520.022278,305.999969 521.044495,305.999939 522.450073,305.999786 
	C523.101807,306.920288 523.370178,307.840912 523.377991,308.900696 
z"/>
<path fill="#00A2E8" opacity="1.000000" stroke="none" 
	d="
M671.257446,241.116333 
	C669.525024,240.690521 669.181213,238.887985 668.012939,237.338287 
	C670.218506,237.180450 671.636719,238.172318 671.257446,241.116333 
z"/>
<path fill="#00A2E8" opacity="1.000000" stroke="none" 
	d="
M235.026352,357.364563 
	C235.739166,357.664948 236.478317,358.329895 237.525391,359.205505 
	C238.463928,359.975037 239.217300,360.466949 238.902466,361.751617 
	C238.197617,362.597107 237.462311,362.725464 236.322144,362.232117 
	C235.684235,360.576355 235.368469,359.152740 235.026352,357.364563 
z"/>
<path fill="#00A2E8" opacity="1.000000" stroke="none" 
	d="
M384.257355,370.116150 
	C382.524841,369.690491 382.181305,367.887787 381.012878,366.338287 
	C383.218475,366.180389 384.636627,367.172241 384.257355,370.116150 
z"/>
<path fill="#00A2E8" opacity="1.000000" stroke="none" 
	d="
M399.447266,234.867615 
	C399.531525,233.435440 399.896362,231.870819 400.572754,230.132431 
	C402.048248,231.925980 401.267670,233.422485 399.447266,234.867615 
z"/>
<path fill="#00A2E8" opacity="1.000000" stroke="none" 
	d="
M515.000000,337.250000 
	C516.022278,336.999969 517.044495,336.999969 518.450073,336.999756 
	C518.782532,337.592163 518.731689,338.184723 518.400818,338.907104 
	C517.281616,338.780792 516.442505,338.524658 515.301636,338.134277 
	C515.000000,338.000000 515.000000,337.500000 515.000000,337.250000 
z"/>
<path fill="#00A2E8" opacity="1.000000" stroke="none" 
	d="
M511.000000,380.250000 
	C512.022278,379.999969 513.044495,379.999939 514.450073,379.999756 
	C514.782593,380.592163 514.731750,381.184723 514.400879,381.907104 
	C513.281616,381.780792 512.442444,381.524689 511.301636,381.134277 
	C511.000000,381.000000 511.000000,380.500000 511.000000,380.250000 
z"/>
<path fill="#00A2E8" opacity="1.000000" stroke="none" 
	d="
M233.000000,374.250000 
	C234.022232,373.999969 235.044479,373.999969 236.450043,373.999756 
	C236.782532,374.592163 236.731705,375.184723 236.400864,375.907104 
	C235.281647,375.780823 234.442474,375.524719 233.301651,375.134308 
	C233.000000,375.000000 233.000000,374.500000 233.000000,374.250000 
z"/>
<path fill="#00A2E8" opacity="1.000000" stroke="none" 
	d="
M512.000000,368.250000 
	C513.022278,367.999969 514.044495,367.999969 515.450073,367.999756 
	C515.782532,368.592163 515.731689,369.184723 515.400818,369.907104 
	C514.281616,369.780792 513.442505,369.524689 512.301636,369.134277 
	C512.000000,369.000000 512.000000,368.500000 512.000000,368.250000 
z"/>
<path fill="#00A2E8" opacity="1.000000" stroke="none" 
	d="
M518.000000,317.250000 
	C519.022278,317.000000 520.044495,316.999969 521.450073,316.999756 
	C521.782593,317.592163 521.731750,318.184723 521.400879,318.907104 
	C520.281616,318.780762 519.442505,318.524658 518.301636,318.134277 
	C518.000000,318.000000 518.000000,317.500000 518.000000,317.250000 
z"/>
<path fill="#00A2E8" opacity="1.000000" stroke="none" 
	d="
M400.122742,198.953888 
	C399.172638,198.813004 399.020142,198.257324 399.100281,197.301514 
	C399.932678,197.387344 402.269318,196.769363 400.122742,198.953888 
z"/>
<path fill="#00A2E8" opacity="1.000000" stroke="none" 
	d="
M402.577789,224.124207 
	C403.068573,223.967117 403.254852,223.973801 403.720581,223.990250 
	C403.928406,225.072342 403.781097,226.109436 402.448853,226.863068 
	C402.202209,226.095856 402.237762,225.191925 402.577789,224.124207 
z"/>
<path fill="#00A2E8" opacity="1.000000" stroke="none" 
	d="
M520.000000,312.250000 
	C520.708374,311.999969 521.416687,311.999939 522.479248,311.999756 
	C522.782593,312.592133 522.731750,313.184692 522.400879,313.907043 
	C521.569763,313.815552 521.018677,313.594238 520.233765,313.186462 
	C520.000000,313.000000 520.000000,312.500000 520.000000,312.250000 
z"/>
<path fill="#00A2E8" opacity="1.000000" stroke="none" 
	d="
M237.788086,363.817627 
	C238.070770,364.477509 238.023712,364.915588 237.904999,365.676636 
	C237.197601,366.596741 236.462921,366.728027 235.322174,366.232239 
	C235.212448,365.478790 235.424927,364.957581 235.818695,364.218201 
	C236.417511,363.617798 236.903625,363.483093 237.788086,363.817627 
z"/>
<path fill="#00A2E8" opacity="1.000000" stroke="none" 
	d="
M517.000000,329.250000 
	C517.708374,329.000000 518.416687,328.999969 519.479248,328.999756 
	C519.782593,329.592133 519.731750,330.184692 519.400879,330.907043 
	C518.569763,330.815552 518.018677,330.594238 517.233765,330.186462 
	C517.000000,330.000000 517.000000,329.500000 517.000000,329.250000 
z"/>
<path fill="#00A2E8" opacity="1.000000" stroke="none" 
	d="
M515.000000,346.250000 
	C515.708374,346.000000 516.416687,345.999969 517.479248,345.999756 
	C517.782532,346.592133 517.731750,347.184692 517.400879,347.907043 
	C516.569763,347.815552 516.018677,347.594238 515.233765,347.186462 
	C515.000000,347.000000 515.000000,346.500000 515.000000,346.250000 
z"/>
<path fill="#00A2E8" opacity="1.000000" stroke="none" 
	d="
M518.000000,323.250000 
	C518.708374,323.000000 519.416687,322.999969 520.479248,322.999756 
	C520.782593,323.592133 520.731750,324.184692 520.400879,324.907043 
	C519.569763,324.815552 519.018677,324.594238 518.233765,324.186462 
	C518.000000,324.000000 518.000000,323.500000 518.000000,323.250000 
z"/>
<path fill="#00A2E8" opacity="1.000000" stroke="none" 
	d="
M235.000000,366.250000 
	C235.708344,365.999969 236.416672,365.999939 237.479172,365.999756 
	C237.782516,366.592133 237.731705,367.184692 237.400879,367.907043 
	C236.569794,367.815521 236.018707,367.594208 235.233810,367.186432 
	C235.000000,367.000000 235.000000,366.500000 235.000000,366.250000 
z"/>
<path fill="#00A2E8" opacity="1.000000" stroke="none" 
	d="
M238.398315,363.910645 
	C237.647247,364.027649 237.176651,364.015839 236.353027,364.002014 
	C236.000000,363.555542 236.000000,363.111115 236.000000,362.333313 
	C236.708725,361.999969 237.417435,361.999969 238.479752,361.999756 
	C238.781830,362.593689 238.730316,363.187744 238.398315,363.910645 
z"/>
<path fill="#00A2E8" opacity="1.000000" stroke="none" 
	d="
M514.000000,357.250000 
	C514.708374,357.000000 515.416687,356.999969 516.479248,356.999756 
	C516.782532,357.592133 516.731689,358.184692 516.400879,358.907043 
	C515.569763,358.815521 515.018677,358.594208 514.233765,358.186462 
	C514.000000,358.000000 514.000000,357.500000 514.000000,357.250000 
z"/>
<path fill="#00A2E8" opacity="1.000000" stroke="none" 
	d="
M212.750000,437.000000 
	C213.656860,437.501648 214.313705,438.003265 215.242126,438.845367 
	C215.513672,439.185822 215.287003,439.299530 215.269714,439.353912 
	C214.336075,438.812622 213.419724,438.216949 212.251678,437.310638 
	C212.000000,437.000000 212.500000,437.000000 212.750000,437.000000 
z"/>
<path fill="#00A2E8" opacity="1.000000" stroke="none" 
	d="
M222.750000,429.000000 
	C223.656860,429.501648 224.313705,430.003265 225.242126,430.845367 
	C225.513672,431.185822 225.287003,431.299530 225.269714,431.353882 
	C224.336090,430.812592 223.419724,430.216919 222.251678,429.310608 
	C222.000000,429.000000 222.500000,429.000000 222.750000,429.000000 
z"/>
<path fill="#00A2E8" opacity="1.000000" stroke="none" 
	d="
M229.294754,428.311829 
	C228.349487,427.782043 227.427048,427.200256 226.252304,426.309204 
	C226.000000,426.000000 226.500000,426.000000 226.750000,426.000000 
	C227.662659,426.490540 228.325317,426.981079 229.263184,427.808411 
	C229.538406,428.145203 229.317581,428.259827 229.294754,428.311829 
z"/>
<path fill="#00A2E8" opacity="1.000000" stroke="none" 
	d="
M674.388672,338.914490 
	C674.218811,338.406372 674.270935,337.812592 674.603821,337.088623 
	C675.497192,337.684967 675.562073,338.331329 674.388672,338.914490 
z"/>
<path fill="#00A2E8" opacity="1.000000" stroke="none" 
	d="
M262.388672,461.914490 
	C262.218781,461.406372 262.270874,460.812653 262.603760,460.088684 
	C263.496979,460.684937 263.562073,461.331299 262.388672,461.914490 
z"/>
<path fill="#00A2E8" opacity="1.000000" stroke="none" 
	d="
M62.542213,356.158478 
	C63.029942,355.998413 63.223953,355.998779 63.708984,355.999573 
	C64.287491,356.483002 64.574982,356.965973 64.931236,357.724487 
	C64.369293,357.924194 63.738586,357.848358 62.637276,357.697998 
	C62.193943,357.188629 62.221214,356.753754 62.542213,356.158478 
z"/>
<path fill="#00A2E8" opacity="1.000000" stroke="none" 
	d="
M578.583496,232.101288 
	C578.214050,230.592651 578.987305,230.886871 579.851807,231.731476 
	C579.555664,232.026596 579.277954,232.048386 578.583496,232.101288 
z"/>
<path fill="#00A2E8" opacity="1.000000" stroke="none" 
	d="
M287.383881,318.906921 
	C287.302185,318.787323 287.435547,318.430084 287.782715,318.119751 
	C287.864044,318.334198 287.731476,318.501740 287.383881,318.906921 
z"/>
<path fill="#00A2E8" opacity="1.000000" stroke="none" 
	d="
M329.987000,395.002533 
	C315.758911,401.532593 302.053864,408.356079 287.963440,414.260010 
	C283.014771,416.333557 277.125885,416.187897 271.654755,416.975128 
	C269.980286,417.216034 268.666748,416.857300 269.126343,414.591858 
	C271.088989,404.917694 271.307648,395.073792 272.178986,385.283417 
	C272.969025,376.406586 272.884888,367.326447 275.935364,358.706482 
	C277.019043,355.644318 277.362396,353.889221 281.705475,355.675323 
	C296.687836,361.836914 312.692566,365.366180 327.131042,372.991394 
	C331.993408,375.559265 336.820129,378.227661 341.460541,381.169617 
	C343.979828,382.766785 343.415466,384.937347 341.533630,387.031433 
	C338.391174,390.528107 334.415100,392.770721 329.987000,395.002533 
z"/>
<path fill="#00A2E8" opacity="1.000000" stroke="none" 
	d="
M289.371094,264.326172 
	C289.391174,263.546783 289.615723,263.093719 289.895142,262.373352 
	C289.738190,260.358429 289.944092,258.661407 290.561890,256.581055 
	C290.556671,256.147186 290.663269,256.158936 290.656860,256.212189 
	C291.557709,255.596329 291.826660,254.624924 291.906372,253.264618 
	C291.995850,252.076477 292.053101,251.174805 293.026825,250.301636 
	C294.832031,248.125168 295.289581,245.868271 294.967651,243.490234 
	C293.812103,234.954971 295.845520,226.816299 297.902100,218.315384 
	C299.999573,212.150879 307.218018,208.118256 315.190735,210.202209 
	C327.786560,213.494537 340.936951,215.100311 352.870911,221.572906 
	C355.994080,227.106873 355.302979,231.826035 351.759796,236.664490 
	C345.720947,244.910965 338.852997,252.042526 329.955475,257.352631 
	C318.995483,263.893585 308.599304,271.353485 297.733948,278.067413 
	C297.310608,278.328979 296.926239,278.675262 296.468536,278.856689 
	C293.974365,279.845184 291.622711,282.623138 288.744110,280.348785 
	C286.133392,278.286072 288.027374,275.343750 288.195770,272.848755 
	C288.381042,270.104065 290.134033,267.569183 289.371094,264.326172 
z"/>
<path fill="#00A2E8" opacity="1.000000" stroke="none" 
	d="
M289.096161,264.412109 
	C290.441040,264.552673 290.843781,265.514160 290.514954,266.835144 
	C290.153046,268.289215 289.696472,269.730774 289.477631,271.206879 
	C289.097656,273.769440 287.349976,277.034546 289.693146,278.722412 
	C291.864532,280.286530 294.161713,277.424713 296.120117,276.172333 
	C309.861420,267.385040 324.066589,259.174957 336.966339,249.272934 
	C345.256866,242.909027 353.894318,235.352524 353.034180,222.336914 
	C357.692200,226.070038 358.509308,229.614090 355.539673,234.917465 
	C349.332092,246.003464 340.326019,254.272705 329.533203,260.884125 
	C315.794464,269.300201 302.282562,278.086365 288.647461,286.672668 
	C288.143890,286.989746 287.372833,286.881958 286.352478,286.902771 
	C285.818298,286.721344 285.657990,286.609314 285.332153,286.255005 
	C286.453003,278.949951 287.739349,271.887146 289.096161,264.412109 
z"/>
<path fill="#00A2E8" opacity="1.000000" stroke="none" 
	d="
M297.559967,218.153900 
	C299.202393,222.613358 296.373169,226.848984 296.480377,231.527603 
	C296.545654,234.375961 296.334839,237.264435 296.677734,240.207306 
	C297.081116,243.669037 298.307312,247.649902 293.509216,249.894867 
	C292.166901,239.148010 293.977570,228.657013 297.559967,218.153900 
z"/>
<path fill="#00A2E8" opacity="1.000000" stroke="none" 
	d="
M290.250366,256.386841 
	C290.931244,257.891968 290.971863,259.618256 290.110321,261.704712 
	C288.336609,260.281311 288.574097,258.454498 290.250366,256.386841 
z"/>
<path fill="#00A2E8" opacity="1.000000" stroke="none" 
	d="
M291.569397,253.138672 
	C292.894867,254.231934 292.248840,255.099075 290.910156,256.062347 
	C290.850922,255.283997 291.051361,254.302567 291.569397,253.138672 
z"/>
<path fill="#00A2E8" opacity="1.000000" stroke="none" 
	d="
M364.089722,174.903885 
	C364.418121,173.994293 365.046112,173.516647 365.909241,174.920685 
	C365.457977,175.108536 364.908417,175.041504 364.089722,174.903885 
z"/>
<path fill="#00A2E8" opacity="1.000000" stroke="none" 
	d="
M218.188843,433.370911 
	C218.652817,433.508728 219.305634,434.017456 220.214111,434.881592 
	C220.469788,435.236938 220.251587,435.392853 220.224121,435.455505 
	C219.590332,434.926056 218.984009,434.333923 218.188843,433.370911 
z"/>
<path fill="#00A2E8" opacity="1.000000" stroke="none" 
	d="
M339.322510,171.904968 
	C339.510620,170.772614 340.070099,170.196884 340.895752,171.882095 
	C340.520477,172.068954 340.082794,172.022781 339.322510,171.904968 
z"/>
<path fill="#00A2E8" opacity="1.000000" stroke="none" 
	d="
M348.322510,172.904968 
	C348.510620,171.772614 349.070099,171.196884 349.895752,172.882095 
	C349.520477,173.068954 349.082794,173.022766 348.322510,172.904968 
z"/>
<path fill="#00A2E8" opacity="1.000000" stroke="none" 
	d="
M361.332001,173.905670 
	C361.544525,172.696655 362.140411,172.264557 362.938690,173.935211 
	C362.558258,174.108231 362.111176,174.043106 361.332001,173.905670 
z"/>
<path fill="#00A2E8" opacity="1.000000" stroke="none" 
	d="
M333.322510,170.904968 
	C333.510620,169.772614 334.070099,169.196884 334.895752,170.882095 
	C334.520477,171.068954 334.082794,171.022781 333.322510,170.904968 
z"/>
<path fill="#00A2E8" opacity="1.000000" stroke="none" 
	d="
M285.138123,286.266968 
	C285.370422,286.170898 285.558960,286.345459 285.855408,286.684937 
	C285.688904,286.729309 285.399261,286.625244 285.138123,286.266968 
z"/>
</svg>